<?xml version="1.0" encoding="utf-8"?>
<!-- Generator: Adobe Illustrator 25.0.0, SVG Export Plug-In . SVG Version: 6.00 Build 0)  -->
<svg version="1.1" id="图层_1" xmlns="http://www.w3.org/2000/svg" xmlns:xlink="http://www.w3.org/1999/xlink" x="0px" y="0px"
	 viewBox="0 0 40 40" style="enable-background:new 0 0 40 40;" xml:space="preserve">
<style type="text/css">
	.st0{fill:url(#SVGID_1_);}
	.st1{fill:#101111;}
	.st2{fill:#262627;}
	.st3{fill:#353535;}
	.st4{fill:#373838;}
	.st5{fill:#37373B;}
	.st6{fill:#3B3B3B;}
	.st7{fill:#585858;}
	.st8{fill:#5D5C5D;}
	.st9{fill:#565757;}
	.st10{fill:#343536;}
	.st11{fill:#595959;}
	.st12{fill:#646464;}
	.st13{fill:#3D3E3F;}
	.st14{fill:#808784;}
	.st15{fill:#3C3D3D;}
	.st16{fill:#2C2C2D;}
	.st17{fill:#0F1011;}
	.st18{fill:#5C5B61;}
	.st19{fill:#606061;}
	.st20{fill:#656666;}
	.st21{fill:#2D2D2F;}
	.st22{fill:#676868;}
	.st23{fill:#B4B4B5;}
	.st24{fill:#67666F;}
	.st25{fill:#A4A4A4;}
	.st26{fill:#626262;}
	.st27{fill:#FFFDFD;}
	.st28{font-family:'MSReferenceSansSerif';}
	.st29{font-size:8.1864px;}
</style>
<linearGradient id="SVGID_1_" gradientUnits="userSpaceOnUse" x1="-2.6427" y1="-2.5825" x2="43.6403" y2="43.7001">
	<stop  offset="0.1594" style="stop-color:#3BEA62"/>
	<stop  offset="0.5404" style="stop-color:#3C99CC"/>
	<stop  offset="0.9374" style="stop-color:#6B57FF"/>
</linearGradient>
<rect x="0.1" y="0.1" class="st0" width="39.9" height="39.9"/>
<path id="body2" class="st1" d="M38.9,7.3c0-0.8-0.7-1.3-1.2-0.8c-0.4,0.4-0.6,0.6-1,0.7c-0.1,0-0.2,0-0.3,0
	c-0.4-0.2-0.8-0.3-1.4-0.4c-0.5-0.1-1.1,0-1.6,0.3c-0.3,0.2-0.5,0.3-0.8,0.4c-0.1,0-0.1,0-0.2,0c-0.3,0-0.6-0.2-0.9-0.4
	c-0.4-0.3-0.9-0.6-1.3-0.2c-0.3,0.3-0.5,0.9-0.1,1.4c0.1,0.2,0.4,0.3,0.6,0.5c0,0,0,0,0,0c0.1,0.2,0.3,0.3,0.4,0.5c0,0,0,0,0,0
	c0,0,0,0.1,0,0.1c0,0,0,0,0,0c-1.2,0.3-2.4,0-3.5,0.5c-1.1,0.4-2.3,0.5-3.4,0.5c-1.1,0-2.2-0.2-3.2-0.6c-1.7-0.6-3.4-0.9-5.2-0.4
	c0,0,0,0,0,0c-0.2,0-0.4,0-0.6,0c-0.4,0-0.9,0.2-1.3,0.3c0,0-0.5,0.1-0.7,0.2c-1.2,0.3-2.7,1.3-4.5,3.4c0,0,0,0,0,0
	c0,0.7-0.7,1.2-0.6,1.7c0,0,0,0,0,0c-0.3,0.3-0.6,0.6-0.9,1c0,0,0,0,0,0c-2.7,1.5-5.1-0.4-6.7-2.7c0,0,0,0,0,0
	c0.1,4,4.6,5.4,7.2,3.3C7.7,16.4,8,16.2,8,16.2c0.2-0.1,0.3-0.2,0.4-0.4c0.1-0.1,0.4-0.5,0.5-0.6c1.8-2.2,1.5,2.2,2.7,3.4
	c0,0,0,0,0,0c0.1,1.6-0.2,3.1-0.7,4.6c-0.7,1.7-0.2,3.1,0.7,4.5c0.1,0.1,0.3,0.4,0.3,0.4c0,0.1,0.1,0.1,0.1,0.2c0.5,0.8,1.2,1,2,0.5
	c0.6-0.3,1.1-0.6,1.8-0.6c0,0,0,0,0,0c0.2-0.1,0.5-0.2,0.6-0.5l0,0c0.4-0.2,0.6-0.5,0.5-0.8c-0.2-0.9-1.6-1.4-2.1-2c0,0,0,0,0,0
	s0.1-0.7,0.2-1c0,0,0-0.1,0.1-0.2c2.1-4.3,2.3-5.5,3.1-5.5c0.8,0,2.1,1.4,6.5,2.1l0.1,0l0.1,0c0.6,0.1,1,0.2,1.5,0.1c0,0,0,0,0,0
	s0,0,0,0c0.4,1.5,0.1,3,0.3,4.5c0.1,0.9,0.2,2,1,2.7c0,0,0,0,0,0c0.2,0.4,0.6,0.6,1,0.8c0-0.6,0.8-0.3,1-0.6c0-0.1,1.3-0.1,1.3,0.1
	c0.4,0.2,0.8,0.3,1.1-0.1c0,0,0,0,0.1,0c0.7-0.1,1.1-0.3,0.7-1.1c0,0,0,0,0,0c0,0,0,0,0,0c-0.3-1.7-2.3-0.8-1.7-3.5c0,0,0-0.2,0-0.3
	c-0.1-0.7,0.6-2.6,0.9-2.9c0,0,0,0,0,0c0.4-0.6,0.6-1.3,0.8-2c0,0,0,0,0,0c0.2-1.5,1.4-2.4,2.1-3.5c0,0,0,0,0,0
	c0.2,0,0.3-0.1,0.5-0.1c0,0,0.2-0.1,0.2-0.1c0,0,0,0,0,0c0.6-0.4,0.5-0.6,0.8-1.1c0,0,0,0,0,0c0.1-0.1,0.1-0.1,0.3-0.3
	c0.1-0.1,0.1-0.1,0.2-0.2c0.4-0.4,0.5-0.6,0.6-0.9c0,0,0,0,0,0c0.1-0.4,0.1-0.5,0.1-1c0-0.6-0.2-1.2,0.1-1.8c0,0,0,0,0,0
	c0-0.1,0-0.1,0-0.2c0,0,0,0,0,0C38.7,8.3,38.9,7.8,38.9,7.3z M14.9,27.9C14.9,27.9,14.9,27.9,14.9,27.9
	C14.9,27.9,14.9,27.9,14.9,27.9C14.9,27.9,14.9,27.9,14.9,27.9z"/>
<g id="腿">
	<path class="st2" d="M30.6,27.1c0,0.6,0.4,0.1,0.7,0.2c0,0,0,0,0,0c0.2,0.2,0.2,0.4,0,0.6c-0.2,0.2-0.4,0.3-0.7,0.2c0,0,0,0-0.1,0
		c0,0,0,0-0.1,0.1c-0.5,0.9-1,0.6-1.6,0.1c-0.3-0.6,0.4-0.4,0.6-0.7C29.7,27.2,29.9,26.6,30.6,27.1z"/>
	<path class="st3" d="M29.1,25.7c-0.7-2.7,0.2-5.1,1.5-7.4l0,0c0.1-0.1,0.2-0.1,0.2-0.2c0.5,0.1,0.4,0.4,0.2,0.7
		c-1,2.2-1.8,4.5-1.5,7C29.4,25.8,29.2,25.8,29.1,25.7z"/>
	<path class="st4" d="M12.2,27.9c-0.1-0.4-0.1-0.9-0.2-1.3c0.1-0.4,0.4-0.6,0.7-0.9c0.5-0.1,0.8,0.1,1.2,0.3c0.6,0,1.1,0.4,1.2,1.1
		c-0.2,0.3-0.2,0.6,0,0.9c0,0.1,0,0.1,0,0.2C14.1,27.5,13.2,27.9,12.2,27.9z"/>
	<path class="st5" d="M29.2,26c0.1,0,0.3,0,0.4,0c0.1,0.1,0.1,0.1,0.2,0.2c0.2,0.4,0.6,0.4,0.9,0.7l0,0c-0.3,0.5-1,0.5-1.3,0.9
		c-0.4,0-0.9,0.2-1.3,0c0-0.5-0.1-1.1,0.4-1.5C28.8,26.2,29,26.1,29.2,26z"/>
	<path class="st6" d="M16.2,18c-0.2,0.4-0.3,0.8-0.4,1.2c-0.1,0.4-0.3,0.7-0.4,1.1c-0.2,0.5-0.7,1.8-1.1,2.4
		c-0.1,0.1-0.6,1.7-0.8,1.7c-0.2,0,0-1,0.3-1.7c0.1-0.2,1.1-2.7,1.3-3.5c0.2-0.4,0.2-0.8,0.3-1.3c0-0.4,0.2-0.6,0.5-0.6
		C16.3,17.4,16.2,17.8,16.2,18z"/>
	<path class="st1" d="M30.4,28.1c0,0,0.1,0.2,0.1,0.3s0.1,0.2,0.1,0.1c0-0.1-0.1-0.4-0.1-0.4L30.4,28.1z"/>
	<path class="st1" d="M31,27.8c0,0,0.1,0.2,0.1,0.3s0.1,0.2,0.1,0.1c0-0.1-0.1-0.4-0.1-0.4L31,27.8z"/>
	<path class="st1" d="M32.1,27.5c0,0,0.1,0.2,0.1,0.3c0,0.1,0.1,0.2,0.1,0.1s-0.1-0.4-0.1-0.4L32.1,27.5z"/>
	<path class="st1" d="M32.9,27.2c0,0,0.1,0.2,0.1,0.3c0,0.1,0.1,0.2,0.1,0.1c0-0.1-0.1-0.4-0.1-0.4L32.9,27.2z"/>
	<path class="st1" d="M30,28.5c0,0,0.1,0.2,0.1,0.3s0.1,0.2,0.1,0.1c0-0.1-0.1-0.4-0.1-0.4L30,28.5z"/>
	<path class="st1" d="M16.4,27.5c0,0,0.1,0.2,0.1,0.3s0.1,0.2,0.1,0.1c0-0.1-0.1-0.4-0.1-0.4L16.4,27.5z"/>
	<path class="st1" d="M15.6,28.1c0,0,0.1,0.2,0.1,0.3s0.1,0.2,0.1,0.1c0-0.1-0.1-0.4-0.1-0.4L15.6,28.1z"/>
	<path class="st1" d="M14.5,28.4c0,0,0.1,0.2,0.1,0.3s0.1,0.2,0.1,0.1c0-0.1-0.1-0.4-0.1-0.4L14.5,28.4z"/>
	<path class="st1" d="M13.8,28.7c0,0,0.1,0.2,0.1,0.3s0.1,0.2,0.1,0.1c0-0.1-0.1-0.4-0.1-0.4L13.8,28.7z"/>
</g>
<g id="spot">
	<path class="st7" d="M17,10.2c0.5-0.5,1-0.6,1.4,0.2C17.8,10.7,17.3,11.4,17,10.2z"/>
	<path class="st8" d="M16,11.8c-0.3,0-0.6-0.2-0.6-0.5c0-0.4,0.3-0.3,0.6-0.3c0.2,0,0.6,0,0.6,0.3C16.6,11.6,16.2,11.7,16,11.8z"/>
	<path class="st9" d="M18.4,11.1c0-0.1,0-0.1,0.2-0.1c0.4,0,0.8-0.1,1.1,0.2c0.1,0.1,0,0.3-0.1,0.4c-0.5,0.2-0.8,0.2-1.2-0.3
		C18.4,11.2,18.4,11.1,18.4,11.1z"/>
	<path class="st10" d="M18.2,11.2c0.1,0,0.1,0,0.2,0c-0.3,0.5-0.6,1.2-1.1,0.1c0,0,0-0.1,0.1-0.1C17.6,11.2,17.9,11.2,18.2,11.2z"/>
	<path class="st11" d="M21.3,11.2c0,0.3-0.3,0.3-0.4,0.4c-0.3,0.1-0.5-0.1-0.6-0.3c-0.1-0.3,0.2-0.3,0.4-0.3
		C20.9,10.8,21.1,10.9,21.3,11.2z"/>
	<path class="st12" d="M19.6,12.3c0,0.2-0.2,0.3-0.4,0.2c-0.1,0-0.3-0.2-0.3-0.3c0-0.2,0.2-0.3,0.3-0.3
		C19.5,11.9,19.6,12.1,19.6,12.3z"/>
	<path class="st13" d="M13.7,10.7c0,0-0.3,0.4,0,0.5s0.9,0.2,0.8-0.1S13.7,10.7,13.7,10.7z"/>
	<path class="st14" d="M14.9,10.2l-0.1,0.4h0.5c0,0,0.5-0.1,0.1-0.3C15,10,14.9,10.2,14.9,10.2z"/>
	<path class="st15" d="M16,9.9l-0.2,0.3c0,0,0.2,0.3,0.4,0.1s0.1-0.2,0-0.3C16.2,9.9,16,9.9,16,9.9z"/>
</g>
<g id="face">
	<path class="st16" d="M34.2,13c0,0.1,0,0.1,0,0.2c-0.7-0.1-1.6,0.5-2.3-0.4c-0.2-0.2-0.4-0.5-0.4-0.7c0-0.3,0.4-0.2,0.6-0.3
		c0.3-0.1,0.6-0.2,0.9-0.3c0,0,0.1,0.1,0.1,0.1c0.1,0.2,0,0.5,0.2,0.8C33.6,12.7,34,12.7,34.2,13z"/>
	<path class="st17" d="M34.1,9.7c0,0.1,0,0.2,0,0.2c-0.4-0.3-1.4,0.6-1.3-0.7C33.4,8.9,33.7,9.4,34.1,9.7z"/>
	<path class="st18" d="M36.5,12.6c-0.8,0.4-1.2,0.3-1.4,0.4c-0.3,0-0.2-0.5-0.2-1c0.5-0.7,1.1-0.7,1.6,0
		C36.7,12.1,36.7,12.4,36.5,12.6z"/>
	<path class="st19" d="M38.5,7.5c-0.1,0.2-0.1,0.5-0.4,0.6c-0.3,0-0.4-0.3-0.5-0.5c-0.1-0.4,0.3-0.4,0.5-0.4
		C38.3,7.1,38.5,7.2,38.5,7.5z"/>
	<path class="st20" d="M32,8c-0.2,0.2-0.3,0.2-0.5,0.5C31.4,8.5,31,8,30.9,7.7c-0.4-0.8,0.6-0.2,0.6-0.2S32.1,7.9,32,8z"/>
	<path class="st21" d="M36.9,11.9c0.5-0.1,0.6,0.2,0.2,0.5c-0.1,0-0.4,0.1-0.6,0.2c0-0.2,0-0.4,0-0.7C36.7,11.9,36.8,11.9,36.9,11.9
		z"/>
	<path class="st22" d="M35.2,11.1c0,0.2-1.1,0.1-1.1,0c0-0.1,0-1.2,0.1-1.2s1,0,1.1,0.1C35.3,10,35.2,10.9,35.2,11.1z"/>
	<path class="st23" d="M35.9,9.8c-0.2,0-0.2-0.1-0.1-0.1c0.1-0.1,0.4-0.4,0.5-0.4c0.1,0,0.2,0.2,0.2,0.3C36.4,9.6,36.1,9.7,35.9,9.8
		z"/>
	<path class="st24" d="M34.7,11.9c0,0,0.1,0.1,0.1,0.1c0,0.1,0,0.2,0,0.4c0,0.2,0,0.2,0,0.5c0,0,0,0.1-0.1,0.1c-0.4,0-1.2,0-1.4-0.4
		c-0.3-0.3-0.2-0.6,0-0.9c0.3-0.2,0.6-0.3,0.9-0.2c0.1,0.1,0.2,0.1,0.3,0.2C34.5,11.7,34.6,11.8,34.7,11.9z"/>
	<path class="st25" d="M33.1,9.4c-0.1,0-0.3,0.1-0.1,0.3s0.3,0.2,0.5,0.2c0.2,0,0.4,0,0.4,0s-0.3-0.3-0.4-0.4
		C33.4,9.4,33.2,9.3,33.1,9.4z"/>
	<polygon class="st16" points="36,12.1 38.9,11.9 36,12.1 	"/>
	<line class="st16" x1="36.2" y1="12.3" x2="36.2" y2="12.2"/>
	<polygon class="st16" points="36.4,12.4 37.6,12.5 36.4,12.4 	"/>
	<path class="st16" d="M36.4,12.3c0,0,1.4-0.1,1.6-0.1c0.2,0,0.7,0.3,0.7,0.3c0,0-0.3-0.1-0.5-0.2c-0.1-0.1-0.2-0.1-0.2-0.1
		L36.4,12.3L36.4,12.3z"/>
	<g>
		<circle class="st16" cx="35.2" cy="12" r="0"/>
		<circle class="st16" cx="34.4" cy="11.9" r="0"/>
		<circle class="st16" cx="34.1" cy="11.8" r="0"/>
		<circle class="st16" cx="33.8" cy="11.8" r="0"/>
		<circle class="st16" cx="33.6" cy="12.2" r="0"/>
		<circle class="st16" cx="33.4" cy="11.9" r="0"/>
		<circle class="st16" cx="33.7" cy="12.5" r="0"/>
		<circle class="st16" cx="34.2" cy="12.5" r="0"/>
		<circle class="st16" cx="34.6" cy="12.5" r="0"/>
		<circle class="st16" cx="34.6" cy="12.8" r="0"/>
		<circle class="st16" cx="34.2" cy="12.8" r="0"/>
		<circle class="st16" cx="34" cy="12.3" r="0"/>
		<circle class="st16" cx="34.2" cy="12.1" r="0"/>
		<circle class="st16" cx="34.5" cy="12.1" r="0"/>
		<circle class="st16" cx="33.9" cy="12.7" r="0"/>
		<circle class="st16" cx="35.7" cy="12.2" r="0"/>
		<circle class="st16" cx="35.3" cy="12.3" r="0"/>
		<circle class="st16" cx="35.5" cy="12" r="0"/>
		<circle class="st16" cx="36" cy="12.4" r="0"/>
		<circle class="st16" cx="35.7" cy="12.4" r="0"/>
		<circle class="st16" cx="36" cy="12.1" r="0"/>
		<circle class="st16" cx="35.8" cy="12" r="0"/>
		<circle class="st16" cx="35.7" cy="11.7" r="0"/>
		<circle class="st16" cx="36.2" cy="11.9" r="0"/>
		<circle class="st16" cx="35.9" cy="11.7" r="0"/>
		<circle class="st16" cx="35.6" cy="12.4" r="0"/>
		<circle class="st16" cx="35.3" cy="12.6" r="0"/>
		<circle class="st16" cx="36.2" cy="12.5" r="0"/>
		<circle class="st16" cx="35.9" cy="12.6" r="0"/>
		<circle class="st16" cx="35.6" cy="12.6" r="0"/>
		<circle class="st16" cx="36.4" cy="12.3" r="0"/>
		<circle class="st16" cx="36.4" cy="12.4" r="0"/>
	</g>
	<polygon class="st16" points="33.6,12.2 33.6,12.2 30.7,12 33.6,12.2 	"/>
	<polygon class="st16" points="33.8,11.8 31.3,11.3 33.7,11.8 	"/>
</g>
<path id="tails_1_" class="st26" d="M8.1,13.8c0.2-0.2,0.3-0.4,0.5-0.6c0.2,0.6,0.1,0.6-0.1,1.1c-0.1,0.1-0.2,0.3-0.2,0.4
	C8,15.2,7.2,15.9,7,15.9C6.9,16,6.8,16,6.8,16c-1,0.6-2.4,0.6-3.2,0c1.1,0.1,2.2-0.2,3.1-0.8c0.1-0.1,0.5-0.4,0.5-0.4"/>
<text transform="matrix(1 0 0 1 0.5744 37.1085)" class="st27 st28 st29">SUNSLAB</text>
</svg>
